<svg width="1918" height="831" viewBox="0 0 1918 831" fill="none" xmlns="http://www.w3.org/2000/svg">
<g filter="url(#filter0_d_959_2)">
<path d="M424.525 281.946L12 292.23L357.222 323.09L273.528 467.99C271.14 472.123 274.123 477.291 278.897 477.291H440.026C444.8 477.291 447.783 482.46 445.395 486.594L363.998 627.449L385.091 524.737C385.88 520.892 382.943 517.289 379.017 517.289H42.1536L335.409 546.701C338.907 547.051 341.414 550.236 340.933 553.718L307.872 793.078C306.942 799.812 315.962 802.918 319.376 797.039L527.872 437.973C530.273 433.84 527.29 428.659 522.51 428.659H361.408C356.634 428.659 353.651 423.491 356.039 419.357L430.048 291.246C432.47 287.053 429.366 281.826 424.525 281.946Z" fill="#1F2C50" stroke="#1F2C50" stroke-width="15.5008"/>
<path d="M516.245 542.096L926.341 523.804L593.366 507.25C588.777 507.022 586.021 502.056 588.256 498.041L667.231 356.197C669.532 352.064 666.544 346.98 661.814 346.98L500.492 346.98C495.718 346.98 492.735 341.811 495.123 337.678L576.52 196.823L556.752 301.574C556.016 305.471 559.078 309.048 563.043 308.921L926.341 297.306L606.123 271.661C602.571 271.376 599.989 268.163 600.475 264.633L632.657 31.1729C633.586 24.4395 624.566 21.3347 621.153 27.2127L412.646 386.298C410.245 390.432 413.228 395.612 418.007 395.612L589.853 395.612L510.6 532.801C508.15 537.041 511.352 542.314 516.245 542.096Z" fill="#F2DE2A" stroke="#F2DE2A" stroke-width="15.5008"/>
<circle cx="1207.44" cy="287.039" r="18.601" fill="#1F2C50"/>
<path d="M1318.54 94.6594C1313.94 103.908 1302.7 107.646 1293.48 102.987L1282.89 97.6311C1273.78 93.0259 1270.09 81.9415 1274.61 72.7914L1290.59 40.4396C1294.77 31.9798 1303.39 26.625 1312.83 26.625H1490.29C1499.7 26.625 1508.3 31.9482 1512.49 40.3697L1528.59 72.6907C1533.17 81.8762 1529.44 93.0313 1520.26 97.6204L1509.75 102.876C1500.56 107.47 1489.39 103.746 1484.79 94.5577L1477.12 79.221C1476.07 77.1204 1473.93 75.7935 1471.58 75.7935H1331.75C1329.39 75.7935 1327.24 77.1273 1326.2 79.2363L1318.54 94.6594ZM1570.79 187.771C1566.57 179.407 1558.01 174.131 1548.64 174.131H1458.05C1455.24 174.131 1452.78 172.242 1452.06 169.528L1438.53 118.789C1435.63 107.932 1425.8 100.378 1414.56 100.378H1388.81C1377.55 100.378 1367.7 107.97 1364.83 118.863L1351.49 169.509C1350.78 172.233 1348.31 174.131 1345.5 174.131H1254.21C1244.83 174.131 1236.25 179.422 1232.05 187.806L1215.82 220.133C1211.2 229.339 1214.94 240.547 1224.16 245.133L1234.74 250.391C1243.96 254.976 1255.15 251.197 1259.7 241.961L1267.2 226.757C1268.24 224.64 1270.4 223.299 1272.76 223.299H1530.08C1532.43 223.299 1534.58 224.633 1535.63 226.742L1543.34 242.277C1547.92 251.482 1559.08 255.236 1568.29 250.661L1578.88 245.392C1588.12 240.801 1591.85 229.575 1587.21 220.366L1570.79 187.771ZM1535.34 487.207C1539.47 502.931 1527.61 518.31 1511.35 518.31H1492.62L1486.72 496.184L1401.66 368.346L1316.35 496.184L1310.7 518.31H1291.91C1275.67 518.31 1263.81 502.962 1267.91 487.248L1325.53 266.423C1328.38 255.503 1338.24 247.883 1349.52 247.883H1381.74L1372.89 281.072L1401.66 324.095L1430.18 281.072L1421.57 247.883H1453.33C1464.6 247.883 1474.46 255.482 1477.32 266.383L1535.34 487.207ZM1386.91 346.22L1364.78 313.032L1335.77 423.169L1386.91 346.22ZM1467.54 422.923L1438.53 312.786L1416.41 346.22L1467.54 422.923Z" fill="#F2DE2A"/>
<path d="M775.898 336.541C776.711 331.988 779.15 328.166 783.216 325.076C787.282 321.823 791.835 320.197 796.877 320.197H905.919C904.13 330.768 900.959 338.574 896.405 343.615C891.852 348.494 885.591 350.934 877.622 350.934H809.074L802.487 389.477H866.4C864.611 400.048 861.44 407.854 856.887 412.895C852.333 417.774 846.072 420.214 838.103 420.214H796.877L789.802 460.22H863.473C869.653 460.22 874.207 461.765 877.134 464.855C880.224 467.782 881.769 472.499 881.769 479.004C881.769 482.094 881.362 486.078 880.549 490.957H766.628C762.074 490.957 758.334 489.737 755.406 487.298C752.642 484.696 751.259 481.443 751.259 477.54C751.259 476.239 751.341 475.263 751.503 474.613L775.898 336.541ZM952.966 344.103C954.429 335.972 958.658 329.548 965.651 324.832C972.806 320.116 981.67 317.758 992.241 317.758L1018.59 442.656L1010.05 459.244L1012.49 460.464L1089.82 318.001C1099.74 318.001 1107.63 320.116 1113.48 324.344C1119.5 328.41 1122.51 333.776 1122.51 340.444C1122.51 342.071 1122.42 343.372 1122.26 344.347L1095.92 493.153C1075.43 493.153 1065.18 486.403 1065.18 472.905C1065.18 471.929 1065.34 470.141 1065.67 467.539L1077.86 397.771L1091.04 373.377L1088.11 372.401L1027.37 483.639C1025.74 486.566 1023.47 488.924 1020.54 490.713C1017.77 492.339 1014.76 493.153 1011.51 493.153C1008.26 493.153 1005.49 492.258 1003.22 490.469C1000.94 488.68 999.478 486.322 998.827 483.395L977.116 371.913L973.945 373.133L978.336 397.527L966.139 467.539C964.675 475.995 960.609 482.419 953.942 486.81C947.274 491.038 938.167 493.153 926.62 493.153L952.966 344.103ZM1178.54 344.103C1180 335.809 1184.23 329.385 1191.22 324.832C1198.21 320.278 1207.4 318.001 1218.79 318.001L1192.44 467.051C1190.98 475.345 1186.75 481.769 1179.76 486.322C1172.76 490.876 1163.57 493.153 1152.19 493.153L1178.54 344.103ZM1620.84 336.541C1621.65 331.988 1624.09 328.166 1628.15 325.076C1632.22 321.823 1636.77 320.197 1641.81 320.197H1750.86C1749.07 330.768 1745.9 338.574 1741.34 343.615C1736.79 348.494 1730.53 350.934 1722.56 350.934H1654.01L1647.43 389.477H1711.34C1709.55 400.048 1706.38 407.854 1701.82 412.895C1697.27 417.774 1691.01 420.214 1683.04 420.214H1641.81L1634.74 460.22H1708.41C1714.59 460.22 1719.14 461.765 1722.07 464.855C1725.16 467.782 1726.71 472.499 1726.71 479.004C1726.71 482.094 1726.3 486.078 1725.49 490.957H1611.57C1607.01 490.957 1603.27 489.737 1600.34 487.298C1597.58 484.696 1596.2 481.443 1596.2 477.54C1596.2 476.239 1596.28 475.263 1596.44 474.613L1620.84 336.541ZM1790.59 490.957C1786.03 490.957 1782.29 489.493 1779.36 486.566C1776.44 483.476 1774.97 479.736 1774.97 475.345C1774.97 473.881 1775.05 472.743 1775.22 471.929L1797.9 343.859C1799.53 335.077 1803.6 328.572 1810.1 324.344C1816.61 320.116 1825.96 318.001 1838.15 318.001L1813.27 459.976H1876.21C1882.88 459.976 1887.92 461.847 1891.33 465.587C1894.91 469.165 1896.7 474.369 1896.7 481.199C1896.7 484.615 1896.38 487.867 1895.73 490.957H1790.59Z" fill="#1F2C50"/>
<path d="M1582.95 721.201C1572.69 721.201 1564.54 719.595 1558.51 716.383C1552.55 713.092 1549.58 708.666 1549.58 703.103C1549.58 694.485 1555.02 690.175 1565.91 690.175C1565.83 690.802 1565.8 691.742 1565.8 692.996C1565.8 697.775 1567.36 701.418 1570.5 703.926C1573.63 706.354 1578.17 707.569 1584.13 707.569C1589.69 707.569 1594.12 706.511 1597.41 704.396C1600.7 702.202 1602.34 699.303 1602.34 695.699C1602.34 694.132 1601.84 692.8 1600.82 691.703C1599.8 690.528 1598.04 689.47 1595.53 688.53C1593.1 687.512 1589.65 686.454 1585.19 685.357C1575.86 683.085 1569.01 680.186 1564.62 676.66C1560.31 673.056 1558.16 668.551 1558.16 663.145C1558.16 657.818 1559.57 653.156 1562.39 649.16C1565.29 645.164 1569.4 642.109 1574.73 639.994C1580.13 637.878 1586.48 636.82 1593.77 636.82C1599.56 636.82 1604.73 637.526 1609.28 638.936C1613.82 640.346 1617.35 642.344 1619.86 644.929C1622.44 647.437 1623.73 650.296 1623.73 653.509C1623.73 661.187 1618.48 665.222 1607.99 665.613C1608.06 664.987 1608.1 664.046 1608.1 662.793C1608.1 658.484 1606.85 655.35 1604.34 653.391C1601.91 651.432 1598 650.453 1592.59 650.453C1587.18 650.453 1582.95 651.432 1579.9 653.391C1576.84 655.271 1575.31 657.935 1575.31 661.383C1575.31 663.655 1576.45 665.535 1578.72 667.024C1580.99 668.434 1585.07 669.805 1590.94 671.137C1600.74 673.409 1607.95 676.386 1612.57 680.069C1617.19 683.751 1619.5 688.373 1619.5 693.936C1619.5 699.499 1618.01 704.356 1615.04 708.509C1612.14 712.583 1607.91 715.717 1602.34 717.911C1596.86 720.104 1590.4 721.201 1582.95 721.201ZM1644.1 721.201C1641.75 721.201 1639.79 720.496 1638.22 719.086C1636.73 717.597 1635.99 715.756 1635.99 713.562C1635.99 710.585 1637.12 707.96 1639.4 705.688C1641.75 703.416 1644.45 702.28 1647.5 702.28C1649.86 702.28 1651.81 703.025 1653.38 704.513C1654.95 705.923 1655.73 707.765 1655.73 710.037C1655.73 713.014 1654.56 715.639 1652.21 717.911C1649.86 720.104 1647.15 721.201 1644.1 721.201ZM1689.62 645.752C1690.01 643.48 1691.19 641.6 1693.14 640.111C1695.1 638.622 1697.3 637.878 1699.73 637.878H1730.52C1738.04 637.878 1743.8 639.602 1747.79 643.049C1751.87 646.418 1753.9 651.276 1753.9 657.622C1753.9 663.655 1752.61 668.826 1750.03 673.135C1747.44 677.444 1743.64 680.695 1738.63 682.889V683.359C1743.72 685.945 1746.26 690.175 1746.26 696.052C1746.26 696.913 1746.11 698.441 1745.79 700.635L1744.38 708.744C1743.68 712.818 1741.64 715.913 1738.27 718.028C1734.98 720.144 1730.52 721.201 1724.88 721.201L1728.4 701.223C1728.64 699.812 1728.75 698.48 1728.75 697.227C1728.75 694.72 1728.13 692.878 1726.87 691.703C1725.62 690.45 1723.7 689.823 1721.12 689.823H1698.9L1695.61 708.744C1694.91 712.818 1692.91 715.913 1689.62 718.028C1686.41 720.144 1681.98 721.201 1676.34 721.201L1689.62 645.752ZM1723 675.133C1727.07 675.133 1730.32 673.801 1732.75 671.137C1735.18 668.473 1736.39 664.869 1736.39 660.325C1736.39 655.154 1733.26 652.568 1726.99 652.568H1705.48L1701.49 675.133H1723ZM1773.99 721.201C1771.64 721.201 1769.68 720.496 1768.11 719.086C1766.63 717.597 1765.88 715.756 1765.88 713.562C1765.88 710.585 1767.02 707.96 1769.29 705.688C1771.64 703.416 1774.34 702.28 1777.4 702.28C1779.75 702.28 1781.71 703.025 1783.28 704.513C1784.84 705.923 1785.63 707.765 1785.63 710.037C1785.63 713.014 1784.45 715.639 1782.1 717.911C1779.75 720.104 1777.05 721.201 1773.99 721.201ZM1815.4 720.144C1813.21 720.144 1811.4 719.438 1809.99 718.028C1808.58 716.54 1807.88 714.738 1807.88 712.622C1807.88 711.917 1807.92 711.369 1808 710.977L1818.93 649.278C1819.71 645.047 1821.67 641.913 1824.8 639.876C1827.94 637.839 1832.44 636.82 1838.32 636.82L1826.33 705.218H1856.65C1859.86 705.218 1862.29 706.119 1863.94 707.921C1865.66 709.645 1866.52 712.152 1866.52 715.443C1866.52 717.088 1866.37 718.655 1866.05 720.144H1815.4ZM1894.24 721.201C1891.89 721.201 1889.94 720.496 1888.37 719.086C1886.88 717.597 1886.14 715.756 1886.14 713.562C1886.14 710.585 1887.27 707.96 1889.54 705.688C1891.89 703.416 1894.6 702.28 1897.65 702.28C1900 702.28 1901.96 703.025 1903.53 704.513C1905.1 705.923 1905.88 707.765 1905.88 710.037C1905.88 713.014 1904.7 715.639 1902.35 717.911C1900 720.104 1897.3 721.201 1894.24 721.201Z" fill="#1F2C50"/>
</g>
<defs>
<filter id="filter0_d_959_2" x="0.0430765" y="16.3311" width="1917.1" height="814.125" filterUnits="userSpaceOnUse" color-interpolation-filters="sRGB">
<feFlood flood-opacity="0" result="BackgroundImageFix"/>
<feColorMatrix in="SourceAlpha" type="matrix" values="0 0 0 0 0 0 0 0 0 0 0 0 0 0 0 0 0 0 127 0" result="hardAlpha"/>
<feOffset dy="11.2669"/>
<feGaussianBlur stdDeviation="5.63343"/>
<feComposite in2="hardAlpha" operator="out"/>
<feColorMatrix type="matrix" values="0 0 0 0 0 0 0 0 0 0 0 0 0 0 0 0 0 0 0.25 0"/>
<feBlend mode="normal" in2="BackgroundImageFix" result="effect1_dropShadow_959_2"/>
<feBlend mode="normal" in="SourceGraphic" in2="effect1_dropShadow_959_2" result="shape"/>
</filter>
</defs>
</svg>
